Input #0, mov,mp4,m4a,3gp,3g2,mj2, from 'C:\Users\sulta\OneDrive - Invesense Asset Management Limited\Documents\remotion\benchmarks\.cache\source\whatsapp-video-2026-05-17-at-45053-am-4e8658f6.mp4':
  Metadata:
    major_brand     : mp42
    minor_version   : 0
    compatible_brands: mp42isom
  Duration: 00:01:36.60, start: 0.000000, bitrate: 762 kb/s
  Stream #0:0[0x1](und): Video: h264 (Baseline) (avc1 / 0x31637661), yuv420p(tv, bt709, progressive), 576x1024, 698 kb/s, 30 fps, 30 tbr, 600 tbn (default)
  Stream #0:1[0x2](und): Audio: aac (LC) (mp4a / 0x6134706D), 44100 Hz, stereo, fltp, 62 kb/s (default)
Stream mapping:
  Stream #0:0 -> #0:0 (h264 (native) -> wrapped_avframe (native))
Press [q] to stop, [?] for help
Output #0, null, to 'NUL':
  Metadata:
    major_brand     : mp42
    minor_version   : 0
    compatible_brands: mp42isom
    encoder         : Lavf62.12.101
  Stream #0:0(und): Video: wrapped_avframe, yuv420p(tv, bt709, progressive), 576x1024, q=2-31, 200 kb/s, 30 fps, 30 tbn (default)
    Metadata:
      encoder         : Lavc62.28.101 wrapped_avframe
[Parsed_scdet_0 @ 00000253517a0740] lavfi.scd.score: 70.819, lavfi.scd.time: 3.866667
[Parsed_scdet_0 @ 00000253517a0740] lavfi.scd.score: 77.793, lavfi.scd.time: 7.2
[Parsed_scdet_0 @ 00000253517a0740] lavfi.scd.score: 69.499, lavfi.scd.time: 7.3
[Parsed_scdet_0 @ 00000253517a0740] lavfi.scd.score: 76.256, lavfi.scd.time: 14.533333
[Parsed_scdet_0 @ 00000253517a0740] lavfi.scd.score: 71.068, lavfi.scd.time: 19.033333
[Parsed_scdet_0 @ 00000253517a0740] lavfi.scd.score: 55.743, lavfi.scd.time: 27.2
[Parsed_scdet_0 @ 00000253517a0740] lavfi.scd.score: 19.231, lavfi.scd.time: 34.433333
[Parsed_scdet_0 @ 00000253517a0740] lavfi.scd.score: 58.908, lavfi.scd.time: 59.2
[Parsed_scdet_0 @ 00000253517a0740] lavfi.scd.score: 73.802, lavfi.scd.time: 63.866667
[Parsed_scdet_0 @ 00000253517a0740] lavfi.scd.score: 75.756, lavfi.scd.time: 67.133333
[Parsed_scdet_0 @ 00000253517a0740] lavfi.scd.score: 72.928, lavfi.scd.time: 73.066667
[Parsed_scdet_0 @ 00000253517a0740] lavfi.scd.score: 73.928, lavfi.scd.time: 75.366667
[Parsed_scdet_0 @ 00000253517a0740] lavfi.scd.score: 76.590, lavfi.scd.time: 79.766667
[Parsed_scdet_0 @ 00000253517a0740] lavfi.scd.score: 77.627, lavfi.scd.time: 82.533333
[Parsed_scdet_0 @ 00000253517a0740] lavfi.scd.score: 48.546, lavfi.scd.time: 88.266667
[Parsed_scdet_0 @ 00000253517a0740] lavfi.scd.score: 77.900, lavfi.scd.time: 91.766667
[Parsed_scdet_0 @ 00000253517a0740] lavfi.scd.score: 78.121, lavfi.scd.time: 92.566667
[Parsed_scdet_0 @ 00000253517a0740] lavfi.scd.score: 19.867, lavfi.scd.time: 92.6
[out#0/null @ 00000253517a0a80] video:1200KiB audio:0KiB subtitle:0KiB other streams:0KiB global headers:0KiB muxing overhead: unknown
frame= 2898 fps=0.0 q=-0.0 Lsize=N/A time=00:01:36.60 bitrate=N/A speed= 446x elapsed=0:00:00.21    
